<svg id="Layer_1" data-name="Layer 1" xmlns="http://www.w3.org/2000/svg" viewBox="0 0 295 279"><defs><style>.cls-1{font-size:40px;font-family:Preeti;}.cls-2{fill:none;stroke:#000;stroke-miterlimit:10;opacity:0;}</style></defs><title>nawarga dairy</title><path d="M294.5,111.5a117,117,0,1,1-82.73,34.27A116.23,116.23,0,0,1,294.5,111.5m0-1a118,118,0,1,0,118,118,118,118,0,0,0-118-118Z" transform="translate(-136.5 -91.5)"/><path d="M295,151.5A77.5,77.5,0,1,1,217.5,229,77.59,77.59,0,0,1,295,151.5m0-1A78.5,78.5,0,1,0,373.5,229,78.51,78.51,0,0,0,295,150.5Z" transform="translate(-136.5 -91.5)"/><text class="cls-1" transform="translate(74.04 111.11) rotate(-66.28)">g</text><text class="cls-1" transform="matrix(0.57, -0.82, 0.82, 0.57, 81.04, 94.99)">j</text><text class="cls-1" transform="matrix(0.7, -0.71, 0.71, 0.7, 90.97, 81.05)"> </text><text class="cls-1" transform="translate(99.47 72.17) rotate(-36.3)">b</text><text class="cls-1" transform="matrix(0.85, -0.52, 0.52, 0.85, 112.39, 63.1)">&apos;</text><text class="cls-1" transform="translate(111.6 62.94) rotate(-25.27)">u</text><text class="cls-1" transform="translate(128.56 55.32) rotate(-16.66)">f</text><text class="cls-1" transform="matrix(0.97, -0.24, 0.24, 0.97, 136.25, 53.11)">{</text><text class="cls-1" transform="translate(135.77 52.98) rotate(-10.02)"> </text><text class="cls-1" transform="translate(147.74 50.34) rotate(0.93)">8</text><text class="cls-1" transform="translate(166.86 51) rotate(6.1)">]</text><text class="cls-1" transform="matrix(0.98, 0.18, -0.18, 0.98, 166.47, 50.68)">/</text><text class="cls-1" transform="matrix(0.96, 0.3, -0.3, 0.96, 179.27, 53.14)">L</text><text class="cls-1" transform="translate(186.63 55.23) rotate(23.87)"> </text><text class="cls-1" transform="translate(197.94 59.76) rotate(34.32)">p</text><text class="cls-1" transform="translate(214.1 70.64) rotate(46.96)">B</text><text class="cls-1" transform="translate(227.19 85.24) rotate(55.81)">f</text><text class="cls-1" transform="translate(231.61 91.91) rotate(58.35)">]</text><text class="cls-1" transform="translate(231.76 91.12) rotate(64.36)">u</text><path d="M277.63,219.22a3.48,3.48,0,0,0-.76.89,4.64,4.64,0,0,0-1-2.53,13.2,13.2,0,0,1-.79-1.31c-.13-.28-.27-.63-.41-1-.46-1.21-1.09-2.85-2.87-3.42a4.17,4.17,0,0,0-4,1,10.24,10.24,0,0,0-1.72,2.05c-.12.18-.25.36-.38.52a15.86,15.86,0,0,1-3.82,3.76,5.18,5.18,0,0,1-2.18,1,6.38,6.38,0,0,1-.89,0,7.27,7.27,0,0,0-1,0,9.93,9.93,0,0,0-3.42,1.08,8.37,8.37,0,0,1-2.37.84,3.92,3.92,0,0,0-.33-.5,9.68,9.68,0,0,0-1-1.1,8.39,8.39,0,0,1-.72-.76c-.88-1.09-.56-2.86.1-4a14.56,14.56,0,0,1,2.77-3.17c.29-.26.57-.54.85-.81l-1.7-1.72c-.26.27-.53.52-.81.79l0,0a19.63,19.63,0,0,0-2.7,3,7.15,7.15,0,0,0-.45.71c-1.1,1.92-1.5,4.75.1,6.73a4.71,4.71,0,0,0,.35.41c.14.15.29.29.42.44l.12.11a3.69,3.69,0,0,1,1.07,1.42l.23.76.78.1.52,0a8.84,8.84,0,0,0,3.8-1.08,7.84,7.84,0,0,1,2.59-.87,6.94,6.94,0,0,1,.79,0,7.39,7.39,0,0,0,1.23,0,7.25,7.25,0,0,0,3.29-1.41,18.48,18.48,0,0,0,4.39-4.3l.41-.57a8.65,8.65,0,0,1,1.31-1.61,1.93,1.93,0,0,1,1.67-.55c.63.2.94.89,1.35,2,.16.4.32.81.52,1.2a17.25,17.25,0,0,0,.9,1.55c.67,1,.81,1.23.27,2.81-.72,2.12-1.35,4.3-1.88,6.49a4.54,4.54,0,0,0-.13.9,2.5,2.5,0,0,0,.33,1.37,1.93,1.93,0,0,0,.67.67l.87.52.65-.77a42.9,42.9,0,0,0,2.76-3.53,6.37,6.37,0,0,0,.79-1.41,6.6,6.6,0,0,0,.31-2.18c0-.18,0-.35,0-.53C278.58,222.12,279,218.15,277.63,219.22Zm-1.53,4.5a4.57,4.57,0,0,1-.16,1.4,4.28,4.28,0,0,1-.51.86,2,2,0,0,1-.17.23c.27-.93.55-1.85.85-2.78A2.81,2.81,0,0,0,276.1,223.72Z" transform="translate(-136.5 -91.5)"/><path d="M248.47,216.64c0-1.33,0-2.32,0-2.77a7.15,7.15,0,0,0-.45.71c-1.1,1.92-1.5,4.75.1,6.73a4.71,4.71,0,0,0,.35.41v-2.3C248.47,218.4,248.47,217.46,248.47,216.64Zm.09,10.91c.07,3.22.19,6.15.39,7.72,0,.21.48-.87.93-1.9C249.46,231.57,249,229.56,248.56,227.55Zm23.64,1.7a.35.35,0,0,0-.07-.15,2.5,2.5,0,0,0,.33,1.37A6,6,0,0,0,272.2,229.25ZM253.05,210a1.4,1.4,0,0,0-1.82.76l0,.12a21.93,21.93,0,0,0-.89,2.6,42,42,0,0,0-1.24,7c-.05.37-.08.75-.12,1.14l0,.51.12.11a3.69,3.69,0,0,1,1.07,1.42l.23.76.78.1.52,0c0-.4,0-.8,0-1.21s0-1,.07-1.49a1.79,1.79,0,0,0,0-.23,33.38,33.38,0,0,1,2.08-9.79v0A1.39,1.39,0,0,0,253.05,210Z" transform="translate(-136.5 -91.5)"/><path d="M356.52,204.94c.93-1.41,3.58-6,2-10.89l-1.59-4.78-.75,5a15.47,15.47,0,0,1-1.75,5.45c-1.65-.53-5.76-1.63-9.25-.73-1-.74-3.68-2.91-3-5.57.89-2.55,1.1-3.16.22-3.74l-.8-.51-.69.65c-.73.68-3,7.7-1.87,11.4-.66.75-1.33,1.52-1.87,2.1h.07c.21,0,.41,0,.61,0v.15c-.49.08-.91.09-.68-.16-3.35-.05-13-5.42-15.91-6.51-5.58-2.09-8,3.52-16,6.59-5.86,2.24-30.09,1.32-38.05,1l-2.77-.1c-.43,0-1.23-.11-2.14-.22a56.81,56.81,0,0,0-6.25-.5,8.48,8.48,0,0,0-1.13,0,10.13,10.13,0,0,0-9.09,11.07c0,.4,1.4,6.65,2.8,12.86,0-1.92-.07-3.94-.08-5.83a4.71,4.71,0,0,1-.35-.41c-1.6-2-1.2-4.81-.1-6.73a7.15,7.15,0,0,1,.45-.71v-.27a7.36,7.36,0,0,1,7.47-7.25,51.52,51.52,0,0,1,5.94.49c1,.12,1.85.22,2.43.23l2.71.1c29.37,1.11,36.4-.15,39.14-1.2,7.27-2.78,9.21-8.37,14.09-6.55,3.31,1.24,13.23,6.61,16.9,6.66h.34l.27-.57v.56c.66-.62,2.45-2.63,3.51-3.86l.55-.64-.42-.74a5,5,0,0,1-.37-2.53,12.31,12.31,0,0,0,3.3,3l.47.28.52-.18c3.67-1.22,8.89.77,8.94.79l.6.23.5-.34a12,12,0,0,1-1.07,1.82l-.31.42.09.5c.51,2.93-.64,7.61-.67,7.7a19.12,19.12,0,0,0,.27,9.3l.1.23c.4.69.27,1,.22,1.14-.3.7-1.55,1.23-2.11,1.38l-.14,0c-2.22.85-4.6-.79-5.49-1.51a2.62,2.62,0,0,0-1-1.92c-1.79-1.34-5.11-.24-5.76,0l-.15.05-1.54,1.11v-.18a6,6,0,0,0-.61.32c-.21.11-.41.24-.61.37-3.06,2-4.85,4.58-6.58,7.11-1.94,2.83-3.8,5.54-7.41,7.61.51-1.33,1.05-2.59,1.52-3.58a1.39,1.39,0,1,0-2.51-1.18c-.43.93-4.24,9.19-3.62,12.87a13.78,13.78,0,0,1-.91,6.4,1.33,1.33,0,0,0-.09.49c0,.76-.1,7.54,2.93,10.42l.88.84H317.2l-.5-1.44a4.36,4.36,0,0,0-1.51-2.06l-.26-.2a1.59,1.59,0,0,1-.56-1.76c.89-2.91,2-9.07-.77-17.71-3.42-10.75,2.09-15.08,2.33-15.26a1.39,1.39,0,0,0-1.65-2.23c-.29.21-6.43,4.88-4,15.81-4.12,1.38-18.59,5.53-28.36-.69a29.5,29.5,0,0,0-9.77-4,9.86,9.86,0,0,0,.31-3.83,2.5,2.5,0,0,1-.33-1.37,1.37,1.37,0,0,0-1.67-.72,1.39,1.39,0,0,0-.88,1.75c.09.28,1.84,6.26-7.46,10.74a5.52,5.52,0,0,0-2.87,4.07,11.78,11.78,0,0,1-1.75,4.18,5.76,5.76,0,0,0-1.1,2.71,24.57,24.57,0,0,0-.14,5.07,8.94,8.94,0,0,0,2.71,5.72l.33.31-5.57.08a5.38,5.38,0,0,1,.71-2.31,3.73,3.73,0,0,0,.49-1.62,38.82,38.82,0,0,0-.53-9.72,9.66,9.66,0,0,1-.16-4.15c1.37-4.28.11-9.47-1.19-13.07a23.82,23.82,0,0,1-1.43-7.55l-.52,0-.78-.1-.23-.76a3.69,3.69,0,0,0-1.07-1.42l-.12-.11a26.65,26.65,0,0,0,1.36,10.37l-.38.84c1,4.34,1.78,7.52,1.72,6.75-.1-1,.7,2.07,0,4.25-.54,1.68-.27,3.34,0,5.43a36,36,0,0,1,.51,9.09,1.09,1.09,0,0,1-.14.43,8.52,8.52,0,0,0-1.07,3.55,1.34,1.34,0,0,0,0,.2,2.71,2.71,0,0,0,2.72,2.71h.05l7.34-.1a2.11,2.11,0,0,0,1.46-.64,2.08,2.08,0,0,0-.06-2.92l-1.57-1.5a6.13,6.13,0,0,1-1.87-3.93,22.16,22.16,0,0,1,.12-4.46,3,3,0,0,1,.57-1.43,12.62,12.62,0,0,0,1.88-3.93c.35,2.49.53,4.51.69,6.24.13,1.43.24,2.66.42,3.76l0,.14c.23,1.46.52,3.28,2.25,4.28a1.87,1.87,0,0,1,.77.83l.95,1.95a1.72,1.72,0,0,0,1.74.95l6.91-.81a1.69,1.69,0,0,0,1.19-.67,1.71,1.71,0,0,0-.36-2.39l-3.1-2.32c-1.28-1-2.36-3.61-2.9-7.09a3.94,3.94,0,0,1,0-1.37l.09-.49a3,3,0,0,0,2-2.26l.11-.59a.41.41,0,0,1,.38-.36c.4,0,.79-.06,1.19-.12a.42.42,0,0,1,.49.26l.05.15a2.95,2.95,0,0,0,5.6-1.84l-.4-1.19a.41.41,0,0,1,.13-.44,13.81,13.81,0,0,0,1.78-2.11,28,28,0,0,0,13.46,3.06,44.26,44.26,0,0,0,6.2-.46,56.5,56.5,0,0,0,9.7-2.28c2.46,7.83,1.5,13.31.71,15.89a4.39,4.39,0,0,0,1.55,4.81l.26.19a1.63,1.63,0,0,1,.56.76l.82,2.36a1.4,1.4,0,0,0,1.31.93h6.88a1.84,1.84,0,0,0,1.26-3.17l-.05-.05h3.74a1.71,1.71,0,0,0,1.15-.46,1.73,1.73,0,0,0,.1-2.42L327.18,258l-.11-.11c-1.1-1-2-3.16-2.49-5.95a7.64,7.64,0,0,1,0-2.78,52.78,52.78,0,0,0,1-10.19,26.85,26.85,0,0,0,6.73-7.41,23.57,23.57,0,0,1,4.9-5.73l.61-.43v-1.54l.7,1,2-1.42c1.24-.42,2.87-.63,3.33-.29.1.08.11.3.09.48l0,.56.4.39c.14.13,2.87,2.73,6.19,2.73a5.83,5.83,0,0,0,2.13-.39c.52-.13,2.88-.88,3.67-2.75a3.56,3.56,0,0,0-.28-3.18,16.88,16.88,0,0,1-.18-7.89A27.25,27.25,0,0,0,356.52,204.94ZM271.41,261l1,.73-3.53.41-.61-1.28a4.68,4.68,0,0,0-1.88-2c-.56-.33-.71-1.09-.9-2.32l0-.14c-.16-1-.26-2.19-.39-3.57-.22-2.39-.48-5.31-1.16-9.26a19.81,19.81,0,0,0,2.58,1.55.42.42,0,0,1,.21.43l-.14,1a2.88,2.88,0,0,0,1.05,2.79c0,.16-.06.32-.08.47a6.58,6.58,0,0,0-.07,2.34C267.82,254.65,268.85,259.11,271.41,261Zm6.53-19.55a3.25,3.25,0,0,0-.83,3.32l.4,1.17a.18.18,0,0,1-.11.19.17.17,0,0,1-.14,0,.15.15,0,0,1-.09-.1l-.08-.21a3.2,3.2,0,0,0-3.54-2.05,8.36,8.36,0,0,1-.86.09,3.21,3.21,0,0,0-3,2.63l-.11.58-.33-.12.15-1a3.16,3.16,0,0,0-1.71-3.31c-.54-.27-1.06-.57-1.57-.89a15.34,15.34,0,0,0,4.89-4.9,27.5,27.5,0,0,1,8.24,3.07A12.08,12.08,0,0,1,277.94,241.49Zm47.16,18.35.67.8h-4.32a10.08,10.08,0,0,1-1.49-4.42,24.61,24.61,0,0,1-.25-3.32,16.36,16.36,0,0,0,1-7.64,10.7,10.7,0,0,1,.61-4c.52-.21,1-.44,1.5-.68a62.55,62.55,0,0,1-1,8.07,10.56,10.56,0,0,0,0,3.76C322.28,254.8,323.19,258,325.1,259.84Z" transform="translate(-136.5 -91.5)"/><path d="M345.41,217.25l-.46-4.2a2,2,0,0,0-.14-.67l-.28-.07a2.59,2.59,0,0,1-1.37-.71,2.71,2.71,0,0,1-.64-2,1.35,1.35,0,0,1-.91-.4l-.52-.51.21-.69a1.63,1.63,0,0,1,.87-1v-.14h.43a2,2,0,0,1,.81,0l.15,0a2,2,0,0,1,.9.62,3,3,0,0,1,.48,2,1.73,1.73,0,0,0,0,.33l.21,0a3.34,3.34,0,0,1,1.11.49,3.12,3.12,0,0,1,1.08,2.32l.47,4.2Zm-3.25-10-.16.1a1,1,0,0,0-.25,1.27l.38-.2Z" transform="translate(-136.5 -91.5)"/><path d="M347.69,224.65l-2.39-.3a4.68,4.68,0,0,1,9.08-.93l-2.28.78a2.27,2.27,0,0,0-4.41.45Z" transform="translate(-136.5 -91.5)"/><path d="M338.05,221.63c-1.56-1.13-2.41-3.18-2.4-5.76,0-.7.06-1.39.11-2.05a14.07,14.07,0,0,0,0-3.11,1.81,1.81,0,0,0-.27-.84.3.3,0,0,0-.12-.08s.06,0,.11,0l-.95-2.21a2.45,2.45,0,0,1,2.79.75,4,4,0,0,1,.83,2.05,16.4,16.4,0,0,1,0,3.64c-.05.65-.1,1.26-.1,1.87,0,1,.18,2.92,1.4,3.8Z" transform="translate(-136.5 -91.5)"/><path d="M321.77,229.24h-.14l.17-2.4a.39.39,0,0,0-.34.14.5.5,0,0,0,0-.32,3.73,3.73,0,0,0-.7-.8,7.22,7.22,0,0,1-.9-1c-1.76-2.44-.32-5.73.29-7.13,1-2.29,2.14-4.88,4.28-6.72s5.78-2.78,8.4-.86l-1.43,1.94c-1.53-1.12-4-.5-5.4.75-1.72,1.48-2.74,3.81-3.64,5.86-.74,1.69-1.39,3.58-.54,4.75a5.76,5.76,0,0,0,.6.65,5.45,5.45,0,0,1,1.17,1.42,2.78,2.78,0,0,1-.13,2.76A2,2,0,0,1,321.77,229.24Z" transform="translate(-136.5 -91.5)"/><path d="M295.12,235.73a9.5,9.5,0,0,1-5-1.37c-.4-.24-.76-.51-1.11-.77a8.81,8.81,0,0,0-1.51-1c-1.49-.66-3.31-.27-5.35.27l-.82.21-3.17-4.62,2-1.36,2.22,3.23a9.42,9.42,0,0,1,6.11.07,10.4,10.4,0,0,1,2,1.22c.31.23.62.46.95.66a7.65,7.65,0,0,0,6.81.41,10.56,10.56,0,0,0,5.23-5,29.43,29.43,0,0,0,1.3-3.05c.85-2.22,1.74-4.53,3.62-6.23l1.62,1.79c-1.46,1.32-2.2,3.25-3,5.3a30.8,30.8,0,0,1-1.42,3.31A13,13,0,0,1,299.1,235,10.6,10.6,0,0,1,295.12,235.73Z" transform="translate(-136.5 -91.5)"/><path d="M275.65,211.47a2.32,2.32,0,0,1-1.55-.54l1.57-1.83-.07,0a.56.56,0,0,0,.17,0,3.89,3.89,0,0,0,.62-.27l.32-.16a12.47,12.47,0,0,1,5.06-1,4.71,4.71,0,0,1,1.64.17,2.54,2.54,0,0,1,1.69,1.59l-2.3.74s0,0-.12,0a3.09,3.09,0,0,0-.85-.05,10.32,10.32,0,0,0-4.09.73l-.26.13a5.6,5.6,0,0,1-1.1.45A3.1,3.1,0,0,1,275.65,211.47Z" transform="translate(-136.5 -91.5)"/><path d="M274.07,212.58a9,9,0,0,1-.51-1.6l-.49-1.58a2.32,2.32,0,0,1,.09-1.92,2.17,2.17,0,0,1,2.95-.57l.15.07.27.13h.54l5.42.21-5,2.1a2.09,2.09,0,0,1-1.29.11l-.4,0a8,8,0,0,0,.11.84l.42,1.33Z" transform="translate(-136.5 -91.5)"/><text class="cls-1" transform="translate(52.91 165.02) rotate(69.43)">s</text><text class="cls-1" transform="translate(62.52 188.32) rotate(59.86)">f</text><text class="cls-1" transform="translate(67.63 197.54) rotate(51.58)">g</text><text class="cls-1" transform="translate(80.61 213.03) rotate(45.88)">]</text><text class="cls-1" transform="translate(81.39 214.3) rotate(40.64)">k</text><text class="cls-1" transform="translate(96.2 226.44) rotate(32.88)">f</text><text class="cls-1" transform="matrix(0.86, 0.51, -0.51, 0.86, 103.79, 231.21)">]</text><text class="cls-1" transform="translate(105.14 232.66) rotate(23.41)">v</text><text class="cls-1" transform="translate(128.79 242.11) rotate(12.17)">/</text><text class="cls-1" transform="translate(144.08 245.13) rotate(5.37)">L</text><text class="cls-1" transform="translate(154.09 246.11) rotate(-1.13)"> </text><text class="cls-1" transform="translate(169.48 245.66) rotate(-9.24)">–</text><text class="cls-1" transform="translate(184.79 243) rotate(-17.46)"> </text><text class="cls-1" transform="matrix(0.89, -0.45, 0.45, 0.89, 199.77, 238.22)">@</text><text class="cls-1" transform="translate(216.73 229.31) rotate(-35.91)"> </text><text class="cls-1" transform="matrix(0.69, -0.72, 0.72, 0.69, 229.72, 219.98)">d</text><text class="cls-1" transform="translate(244.98 203.16) rotate(-54.93)">f</text><text class="cls-1" transform="translate(250.04 195.77) rotate(-57.46)">]</text><text class="cls-1" transform="translate(250.84 194.91) rotate(-61.7)">/</text><text class="cls-1" transform="translate(258.54 180.46) rotate(-71.33)">ª</text><path d="M203.08,232.29,205,240.6l-7.29-4.37a1.69,1.69,0,0,0-1.7,0l-7.29,4.36,1.89-8.3a1.67,1.67,0,0,0-.53-1.61l-6.39-5.6,8.46-.77a1.66,1.66,0,0,0,1.37-1l3.34-7.82,3.34,7.82a1.64,1.64,0,0,0,1.37,1l8.46.77-6.39,5.61A1.64,1.64,0,0,0,203.08,232.29Z" transform="translate(-136.5 -91.5)"/><path d="M400.08,229.29,402,237.6l-7.29-4.37a1.69,1.69,0,0,0-1.7,0l-7.29,4.36,1.89-8.3a1.67,1.67,0,0,0-.53-1.61l-6.39-5.6,8.46-.77a1.66,1.66,0,0,0,1.37-1l3.34-7.82,3.34,7.82a1.64,1.64,0,0,0,1.37,1l8.46.77-6.39,5.61A1.64,1.64,0,0,0,400.08,229.29Z" transform="translate(-136.5 -91.5)"/><rect class="cls-2" x="0.5" y="0.5" width="294" height="278"/></svg>