<svg xmlns="http://www.w3.org/2000/svg" x="0px" y="0px"
width="64" height="64"
viewBox="0 0 172 172"
style=" fill:#000000;"><g fill="none" fill-rule="nonzero" stroke="none" stroke-width="1" stroke-linecap="butt" stroke-linejoin="miter" stroke-miterlimit="10" stroke-dasharray="" stroke-dashoffset="0" font-family="none" font-weight="none" font-size="none" text-anchor="none" style="mix-blend-mode: normal"><path d="M0,172v-172h172v172z" fill="none"></path><g fill="#ffffff"><path d="M5.375,43c2.28437,0 4.03125,-1.74688 4.03125,-4.03125v-20.15625c0,-5.24062 4.16563,-9.40625 9.40625,-9.40625h20.15625c2.28437,0 4.03125,-1.74688 4.03125,-4.03125c0,-2.28438 -1.74688,-4.03125 -4.03125,-4.03125h-20.15625c-9.675,0 -17.46875,7.79375 -17.46875,17.46875v20.15625c0,2.28437 1.74687,4.03125 4.03125,4.03125zM18.8125,170.65625h20.15625c2.28437,0 4.03125,-1.74687 4.03125,-4.03125c0,-2.28438 -1.74688,-4.03125 -4.03125,-4.03125h-20.15625c-5.24062,0 -9.40625,-4.16563 -9.40625,-9.40625v-20.15625c0,-2.28438 -1.74688,-4.03125 -4.03125,-4.03125c-2.28438,0 -4.03125,1.74687 -4.03125,4.03125v20.15625c0,9.675 7.79375,17.46875 17.46875,17.46875zM166.625,129c-2.28438,0 -4.03125,1.74687 -4.03125,4.03125v20.15625c0,5.24062 -4.16563,9.40625 -9.40625,9.40625h-20.15625c-2.28438,0 -4.03125,1.74687 -4.03125,4.03125c0,2.28438 1.74687,4.03125 4.03125,4.03125h20.15625c9.675,0 17.46875,-7.79375 17.46875,-17.46875v-20.15625c0,-2.28438 -1.74687,-4.03125 -4.03125,-4.03125zM153.1875,1.34375h-20.15625c-2.28438,0 -4.03125,1.74687 -4.03125,4.03125c0,2.28437 1.74687,4.03125 4.03125,4.03125h20.15625c5.24062,0 9.40625,4.16563 9.40625,9.40625v20.15625c0,2.28437 1.74687,4.03125 4.03125,4.03125c2.28438,0 4.03125,-1.74688 4.03125,-4.03125v-20.15625c0,-9.675 -7.79375,-17.46875 -17.46875,-17.46875zM28.21875,41.65625v95.40625c0,2.28438 1.74687,4.03125 4.03125,4.03125c2.28437,0 4.03125,-1.74687 4.03125,-4.03125v-95.40625c0,-2.28437 -1.74688,-4.03125 -4.03125,-4.03125c-2.28438,0 -4.03125,1.74688 -4.03125,4.03125zM51.0625,120.9375c2.28438,0 4.03125,-1.74688 4.03125,-4.03125v-75.25c0,-2.28437 -1.74687,-4.03125 -4.03125,-4.03125c-2.28438,0 -4.03125,1.74688 -4.03125,4.03125v75.25c0,2.28437 1.74687,4.03125 4.03125,4.03125zM69.875,120.9375c2.28437,0 4.03125,-1.74688 4.03125,-4.03125v-75.25c0,-2.28437 -1.74688,-4.03125 -4.03125,-4.03125c-2.28437,0 -4.03125,1.74688 -4.03125,4.03125v75.25c0,2.28437 1.74688,4.03125 4.03125,4.03125zM88.6875,120.9375c2.28437,0 4.03125,-1.74688 4.03125,-4.03125v-75.25c0,-2.28437 -1.74688,-4.03125 -4.03125,-4.03125c-2.28437,0 -4.03125,1.74688 -4.03125,4.03125v75.25c0,2.28437 1.74688,4.03125 4.03125,4.03125zM120.9375,120.9375c2.28437,0 4.03125,-1.74688 4.03125,-4.03125v-75.25c0,-2.28437 -1.74688,-4.03125 -4.03125,-4.03125c-2.28437,0 -4.03125,1.74688 -4.03125,4.03125v75.25c0,2.28437 1.74688,4.03125 4.03125,4.03125zM143.78125,137.0625v-95.40625c0,-2.28437 -1.74687,-4.03125 -4.03125,-4.03125c-2.28438,0 -4.03125,1.74688 -4.03125,4.03125v95.40625c0,2.28438 1.74687,4.03125 4.03125,4.03125c2.28438,0 4.03125,-1.74687 4.03125,-4.03125z"></path></g></g></svg>